<?xml version="1.0" encoding="UTF-8"?>
<svg width="42px" height="42px" viewBox="0 0 42 42" version="1.1" xmlns="http://www.w3.org/2000/svg" xmlns:xlink="http://www.w3.org/1999/xlink">
    <!-- Generator: Sketch 51.2 (57519) - http://www.bohemiancoding.com/sketch -->
    <title>icons copy</title>
    <desc>Created with Sketch.</desc>
    <defs></defs>
    <g id="mockups-for-review" stroke="none" stroke-width="1" fill="none" fill-rule="evenodd">
        <g id="icons-copy" transform="translate(-30.000000, -4.000000)" fill="#4A4A4A">
            <g id="calendar" transform="translate(26.000000, 0.000000)">
                <path d="M36.1996052,43.0806873 C32.1434378,43.0806873 28.8439803,39.7014582 28.8439803,35.5473991 C28.8439803,31.3932614 32.1434378,28.0141108 36.1996052,28.0141108 C40.255696,28.0141108 43.5552301,31.3932614 43.5552301,35.5473991 C43.5552301,39.7014582 40.255696,43.0806873 36.1996052,43.0806873 Z M9.22898053,39.732533 C8.32783986,39.732533 7.59434613,38.981323 7.59434613,38.0584951 L7.59434613,17.9697264 L40.286038,17.9697264 L40.286038,27.356439 C39.0583382,26.7114012 37.6716496,26.3399944 36.1996052,26.3399944 C31.2423737,26.3399944 27.2093459,30.4704336 27.2093459,35.5473991 C27.2093459,37.0549984 27.5719935,38.4751802 28.2018189,39.732533 L9.22898053,39.732533 Z M9.22898053,9.59937998 L15.7672882,9.59937998 L15.7672882,11.2734179 C14.8653814,11.2734179 14.1327305,12.024628 14.1327305,12.9475343 C14.1327305,13.8703621 14.8653814,14.6215722 15.7672882,14.6215722 C16.6691951,14.6215722 17.401846,13.8703621 17.401846,12.9475343 L17.401846,9.59937998 L32.1130958,9.59937998 L32.1130958,11.2734179 C31.2112656,11.2734179 30.4785381,12.024628 30.4785381,12.9475343 C30.4785381,13.8703621 31.2112656,14.6215722 32.1130958,14.6215722 C33.0150027,14.6215722 33.7477302,13.8703621 33.7477302,12.9475343 L33.7477302,9.59937998 L38.6514802,9.59937998 C39.5525442,9.59937998 40.286038,10.3505901 40.286038,11.2734179 L40.286038,16.2956101 L7.59434613,16.2956101 L7.59434613,11.2734179 C7.59434613,10.3505901 8.32783986,9.59937998 9.22898053,9.59937998 Z M41.9205957,28.4504922 L41.9205957,11.2734179 C41.9205957,9.42689907 40.4544511,7.92534208 38.6514802,7.92534208 L33.7477302,7.92534208 L33.7477302,5.41424599 C33.7477302,4.95157654 33.382171,4.57718781 32.930413,4.57718781 C32.4786551,4.57718781 32.1130958,4.95157654 32.1130958,5.41424599 L32.1130958,7.92534208 L17.401846,7.92534208 L17.401846,5.41424599 C17.401846,4.95157654 17.0363634,4.57718781 16.5846054,4.57718781 C16.1328475,4.57718781 15.7672882,4.95157654 15.7672882,5.41424599 L15.7672882,7.92534208 L9.22898053,7.92534208 C7.42593297,7.92534208 5.95978836,9.42689907 5.95978836,11.2734179 L5.95978836,38.0584951 C5.95978836,39.905014 7.42593297,41.406571 9.22898053,41.406571 L29.2700702,41.406571 C30.9204119,43.4502108 33.4138921,44.7547252 36.1996052,44.7547252 C41.1568367,44.7547252 45.1897879,40.6243645 45.1897879,35.5473991 C45.1897879,32.6944015 43.9160389,30.1406953 41.9205957,28.4504922 Z" id="Fill-1"></path>
                <path d="M39.8088614,32.2886622 L34.5998566,37.6227409 L32.7018775,35.6791893 C32.3785118,35.3480593 31.8547013,35.3480593 31.5314132,35.6791893 C31.2080475,36.01024 31.2080475,36.5466278 31.5314132,36.8777578 L34.0146632,39.4206333 C34.1763072,39.5861586 34.3880819,39.668961 34.5998566,39.668961 C34.8117088,39.668961 35.0234835,39.5861586 35.1851275,39.4206333 L40.9794034,33.4872307 C41.3026915,33.1561801 41.3026915,32.6197923 40.9794034,32.2886622 C40.6560377,31.9575321 40.1322271,31.9575321 39.8088614,32.2886622" id="Fill-4"></path>
            </g>
        </g>
    </g>
</svg>