<?xml version="1.0" encoding="UTF-8"?>
<svg width="42px" height="42px" viewBox="0 0 42 42" version="1.1" xmlns="http://www.w3.org/2000/svg" xmlns:xlink="http://www.w3.org/1999/xlink">
    <!-- Generator: Sketch 51.2 (57519) - http://www.bohemiancoding.com/sketch -->
    <title>icons copy</title>
    <desc>Created with Sketch.</desc>
    <defs></defs>
    <g id="mockups-for-review" stroke="none" stroke-width="1" fill="none" fill-rule="evenodd">
        <g id="icons-copy" transform="translate(-76.000000, -1.000000)" fill="#4A4A4A">
            <g id="monitor" transform="translate(76.000000, 3.000000)">
                <path d="M35.6474885,0.0548985272 L5.91251288,0.0548985272 C3.76038626,0.0548985272 2,1.97990162 2,4.33327741 L2,26.5805802 C2,28.933956 3.76038626,30.8589591 5.91251288,30.8589591 L16.7110484,30.8589591 L14.5197967,35.1373379 C14.2461653,35.6936609 14.2461653,36.3354177 14.5197967,36.8488232 C14.7940394,37.3622286 15.3026661,37.7049001 15.8504179,37.7049001 L25.7100726,37.7049001 C26.2573353,37.7049001 26.7660843,37.3622286 27.0402047,36.8488232 C27.3138361,36.3354177 27.3138361,35.6936609 27.0402047,35.1373379 L24.8489529,30.8589591 L35.6474885,30.8589591 C37.7996151,30.8589591 39.5600014,28.933956 39.5600014,26.5805802 L39.5600014,4.33327741 C39.5600014,1.97990162 37.7996151,0.0548985272 35.6474885,0.0548985272 Z M25.7100726,35.9934148 L15.8504179,35.9934148 L18.471557,30.8589591 L23.0493193,30.8589591 L25.7100726,35.9934148 Z M37.994874,26.5805802 C37.994874,27.9928463 36.9389845,29.1481423 35.6474885,29.1481423 L5.91251288,29.1481423 C4.6215059,29.1481423 3.56512742,27.9928463 3.56512742,26.5805802 L3.56512742,24.0136865 L37.994874,24.0136865 L37.994874,26.5805802 Z M37.994874,22.3022013 L3.56512742,22.3022013 L3.56512742,4.33327741 C3.56512742,2.92154607 4.6215059,1.76638378 5.91251288,1.76638378 L35.6474885,1.76638378 C36.9389845,1.76638378 37.994874,2.92154607 37.994874,4.33327741 L37.994874,22.3022013 Z" id="Fill-1"></path>
                <path d="M20.1631548,27.5910767 L20.9895924,27.5910767 C21.443791,27.5910767 21.8153846,27.1057743 21.8153846,26.5117467 C21.8153846,25.9185619 21.443791,25.4332596 20.9895924,25.4332596 L20.1631548,25.4332596 C19.7089562,25.4332596 19.3373626,25.9185619 19.3373626,26.5117467 C19.3373626,27.1057743 19.7089562,27.5910767 20.1631548,27.5910767 Z" id="Fill-4"></path>
            </g>
        </g>
    </g>
</svg>